<svg width="112" height="33" viewBox="0 0 112 33" fill="none" xmlns="http://www.w3.org/2000/svg">
<g filter="url(#filter0_d_2050_271)">
<rect x="4" width="104" height="25" rx="5" fill="#55DF63"/>
</g>
<path d="M9.88565 16H8.23793L10.7486 8.72727H12.7301L15.2372 16H13.5895L11.7678 10.3892H11.7109L9.88565 16ZM9.78267 13.1413H13.6747V14.3416H9.78267V13.1413ZM16.0842 18.0455V10.5455H17.5756V11.4616H17.6431C17.7094 11.3149 17.8053 11.1657 17.9308 11.0142C18.0586 10.8603 18.2243 10.7325 18.4279 10.6307C18.6339 10.5265 18.8896 10.4744 19.195 10.4744C19.5927 10.4744 19.9596 10.5786 20.2958 10.7869C20.632 10.9929 20.9007 11.3042 21.1019 11.7209C21.3031 12.1352 21.4038 12.6548 21.4038 13.2798C21.4038 13.8883 21.3055 14.402 21.109 14.821C20.9149 15.2377 20.6497 15.5537 20.3136 15.7692C19.9798 15.9822 19.6057 16.0888 19.1914 16.0888C18.8978 16.0888 18.6481 16.0402 18.4421 15.9432C18.2385 15.8461 18.0716 15.7242 17.9414 15.5774C17.8112 15.4283 17.7118 15.2779 17.6431 15.1264H17.5969V18.0455H16.0842ZM17.565 13.2727C17.565 13.5971 17.61 13.88 17.6999 14.1214C17.7899 14.3629 17.9201 14.5511 18.0906 14.6861C18.261 14.8187 18.4682 14.8849 18.712 14.8849C18.9582 14.8849 19.1665 14.8175 19.337 14.6825C19.5075 14.5452 19.6365 14.3558 19.7241 14.1143C19.814 13.8705 19.859 13.59 19.859 13.2727C19.859 12.9579 19.8152 12.6809 19.7276 12.4418C19.64 12.2027 19.511 12.0156 19.3406 11.8807C19.1701 11.7457 18.9606 11.6783 18.712 11.6783C18.4658 11.6783 18.2575 11.7434 18.087 11.8736C17.9189 12.0038 17.7899 12.1884 17.6999 12.4276C17.61 12.6667 17.565 12.9484 17.565 13.2727ZM22.4123 18.0455V10.5455H23.9038V11.4616H23.9712C24.0375 11.3149 24.1334 11.1657 24.2589 11.0142C24.3867 10.8603 24.5524 10.7325 24.756 10.6307C24.962 10.5265 25.2177 10.4744 25.5231 10.4744C25.9208 10.4744 26.2878 10.5786 26.6239 10.7869C26.9601 10.9929 27.2288 11.3042 27.43 11.7209C27.6313 12.1352 27.7319 12.6548 27.7319 13.2798C27.7319 13.8883 27.6336 14.402 27.4371 14.821C27.243 15.2377 26.9779 15.5537 26.6417 15.7692C26.3079 15.9822 25.9338 16.0888 25.5195 16.0888C25.226 16.0888 24.9762 16.0402 24.7702 15.9432C24.5666 15.8461 24.3997 15.7242 24.2695 15.5774C24.1393 15.4283 24.0399 15.2779 23.9712 15.1264H23.9251V18.0455H22.4123ZM23.8931 13.2727C23.8931 13.5971 23.9381 13.88 24.0281 14.1214C24.118 14.3629 24.2482 14.5511 24.4187 14.6861C24.5891 14.8187 24.7963 14.8849 25.0401 14.8849C25.2863 14.8849 25.4947 14.8175 25.6651 14.6825C25.8356 14.5452 25.9646 14.3558 26.0522 14.1143C26.1422 13.8705 26.1871 13.59 26.1871 13.2727C26.1871 12.9579 26.1433 12.6809 26.0558 12.4418C25.9682 12.2027 25.8391 12.0156 25.6687 11.8807C25.4982 11.7457 25.2887 11.6783 25.0401 11.6783C24.7939 11.6783 24.5856 11.7434 24.4151 11.8736C24.247 12.0038 24.118 12.1884 24.0281 12.4276C23.9381 12.6667 23.8931 12.9484 23.8931 13.2727ZM30.2532 8.72727V16H28.7404V8.72727H30.2532ZM32.399 18.0455C32.2072 18.0455 32.0273 18.0301 31.8592 17.9993C31.6935 17.9709 31.5562 17.9342 31.4473 17.8892L31.7882 16.7599C31.9657 16.8144 32.1255 16.844 32.2676 16.8487C32.412 16.8535 32.5363 16.8203 32.6404 16.7493C32.747 16.6783 32.8334 16.5575 32.8997 16.3871L32.9885 16.1562L31.0318 10.5455H32.6227L33.752 14.5511H33.8088L34.9487 10.5455H36.5502L34.4302 16.5895C34.3284 16.883 34.1899 17.1387 34.0147 17.3565C33.8419 17.5767 33.6229 17.746 33.3578 17.8643C33.0926 17.9851 32.773 18.0455 32.399 18.0455ZM42.5721 10.5455V11.6818H39.2056V10.5455H42.5721ZM39.9762 16V10.1513C39.9762 9.75592 40.0531 9.42803 40.207 9.16761C40.3633 8.9072 40.5763 8.71188 40.8462 8.58168C41.1161 8.45147 41.4227 8.38636 41.766 8.38636C41.998 8.38636 42.2099 8.40412 42.4016 8.43963C42.5958 8.47514 42.7402 8.5071 42.8349 8.53551L42.565 9.67188C42.5058 9.65294 42.4324 9.63518 42.3448 9.61861C42.2596 9.60204 42.172 9.59375 42.082 9.59375C41.8595 9.59375 41.7044 9.64583 41.6168 9.75C41.5292 9.8518 41.4854 9.99503 41.4854 10.1797V16H39.9762ZM45.7654 16.1065C45.2138 16.1065 44.7368 15.9893 44.3343 15.755C43.9342 15.5182 43.6253 15.1892 43.4075 14.7678C43.1897 14.344 43.0808 13.8527 43.0808 13.294C43.0808 12.7306 43.1897 12.2382 43.4075 11.8168C43.6253 11.393 43.9342 11.0639 44.3343 10.8295C44.7368 10.5928 45.2138 10.4744 45.7654 10.4744C46.3171 10.4744 46.7929 10.5928 47.193 10.8295C47.5955 11.0639 47.9056 11.393 48.1234 11.8168C48.3412 12.2382 48.4501 12.7306 48.4501 13.294C48.4501 13.8527 48.3412 14.344 48.1234 14.7678C47.9056 15.1892 47.5955 15.5182 47.193 15.755C46.7929 15.9893 46.3171 16.1065 45.7654 16.1065ZM45.7725 14.9347C46.0235 14.9347 46.233 14.8636 46.4011 14.7216C46.5692 14.5772 46.6958 14.3807 46.7811 14.1321C46.8687 13.8835 46.9125 13.6006 46.9125 13.2834C46.9125 12.9661 46.8687 12.6832 46.7811 12.4347C46.6958 12.1861 46.5692 11.9896 46.4011 11.8452C46.233 11.7008 46.0235 11.6286 45.7725 11.6286C45.5192 11.6286 45.3062 11.7008 45.1333 11.8452C44.9629 11.9896 44.8339 12.1861 44.7463 12.4347C44.661 12.6832 44.6184 12.9661 44.6184 13.2834C44.6184 13.6006 44.661 13.8835 44.7463 14.1321C44.8339 14.3807 44.9629 14.5772 45.1333 14.7216C45.3062 14.8636 45.5192 14.9347 45.7725 14.9347ZM49.4338 16V10.5455H50.9004V11.4972H50.9572C51.0566 11.1586 51.2235 10.9029 51.4579 10.7301C51.6923 10.5549 51.9622 10.4673 52.2676 10.4673C52.3433 10.4673 52.425 10.4721 52.5126 10.4815C52.6002 10.491 52.6771 10.504 52.7434 10.5206V11.8629C52.6724 11.8416 52.5742 11.8227 52.4487 11.8061C52.3232 11.7895 52.2084 11.7812 52.1042 11.7812C51.8817 11.7812 51.6828 11.8298 51.5076 11.9268C51.3348 12.0215 51.1975 12.1541 51.0957 12.3246C50.9963 12.495 50.9466 12.6915 50.9466 12.9141V16H49.4338ZM55.84 16V10.5455H57.2818V11.5078H57.3457C57.4593 11.1882 57.6487 10.9361 57.9139 10.7514C58.179 10.5668 58.4963 10.4744 58.8656 10.4744C59.2396 10.4744 59.5581 10.5679 59.8208 10.755C60.0836 10.9396 60.2588 11.1906 60.3464 11.5078H60.4032C60.5145 11.1953 60.7157 10.9455 61.0069 10.7585C61.3005 10.5691 61.6473 10.4744 62.0474 10.4744C62.5564 10.4744 62.9695 10.6366 63.2868 10.9609C63.6064 11.2829 63.7662 11.7398 63.7662 12.3317V16H62.2569V12.63C62.2569 12.3269 62.1764 12.0997 62.0154 11.9482C61.8545 11.7966 61.6532 11.7209 61.4118 11.7209C61.1371 11.7209 60.9229 11.8085 60.769 11.9837C60.6151 12.1565 60.5382 12.3849 60.5382 12.669V16H59.0716V12.598C59.0716 12.3305 58.9946 12.1174 58.8407 11.9588C58.6892 11.8002 58.4892 11.7209 58.2406 11.7209C58.0725 11.7209 57.921 11.7635 57.786 11.8487C57.6535 11.9316 57.5481 12.0488 57.47 12.2003C57.3919 12.3494 57.3528 12.5246 57.3528 12.7259V16H55.84ZM67.4256 16.1065C66.874 16.1065 66.397 15.9893 65.9945 15.755C65.5944 15.5182 65.2855 15.1892 65.0676 14.7678C64.8498 14.344 64.7409 13.8527 64.7409 13.294C64.7409 12.7306 64.8498 12.2382 65.0676 11.8168C65.2855 11.393 65.5944 11.0639 65.9945 10.8295C66.397 10.5928 66.874 10.4744 67.4256 10.4744C67.9772 10.4744 68.4531 10.5928 68.8532 10.8295C69.2556 11.0639 69.5658 11.393 69.7836 11.8168C70.0014 12.2382 70.1103 12.7306 70.1103 13.294C70.1103 13.8527 70.0014 14.344 69.7836 14.7678C69.5658 15.1892 69.2556 15.5182 68.8532 15.755C68.4531 15.9893 67.9772 16.1065 67.4256 16.1065ZM67.4327 14.9347C67.6837 14.9347 67.8932 14.8636 68.0613 14.7216C68.2293 14.5772 68.356 14.3807 68.4412 14.1321C68.5288 13.8835 68.5726 13.6006 68.5726 13.2834C68.5726 12.9661 68.5288 12.6832 68.4412 12.4347C68.356 12.1861 68.2293 11.9896 68.0613 11.8452C67.8932 11.7008 67.6837 11.6286 67.4327 11.6286C67.1794 11.6286 66.9663 11.7008 66.7935 11.8452C66.623 11.9896 66.494 12.1861 66.4064 12.4347C66.3212 12.6832 66.2786 12.9661 66.2786 13.2834C66.2786 13.6006 66.3212 13.8835 66.4064 14.1321C66.494 14.3807 66.623 14.5772 66.7935 14.7216C66.9663 14.8636 67.1794 14.9347 67.4327 14.9347ZM71.0939 16V10.5455H72.5605V11.4972H72.6174C72.7168 11.1586 72.8837 10.9029 73.1181 10.7301C73.3525 10.5549 73.6223 10.4673 73.9277 10.4673C74.0035 10.4673 74.0852 10.4721 74.1728 10.4815C74.2604 10.491 74.3373 10.504 74.4036 10.5206V11.8629C74.3326 11.8416 74.2343 11.8227 74.1088 11.8061C73.9834 11.7895 73.8685 11.7812 73.7644 11.7812C73.5418 11.7812 73.343 11.8298 73.1678 11.9268C72.995 12.0215 72.8577 12.1541 72.7559 12.3246C72.6564 12.495 72.6067 12.6915 72.6067 12.9141V16H71.0939ZM77.4176 16.1065C76.8565 16.1065 76.3736 15.9929 75.9688 15.7656C75.5663 15.536 75.2562 15.2116 75.0384 14.7926C74.8205 14.3712 74.7116 13.8729 74.7116 13.2976C74.7116 12.7365 74.8205 12.2441 75.0384 11.8203C75.2562 11.3965 75.5627 11.0663 75.9581 10.8295C76.3558 10.5928 76.8222 10.4744 77.3572 10.4744C77.7171 10.4744 78.0521 10.5324 78.3622 10.6484C78.6747 10.7621 78.947 10.9337 79.179 11.1634C79.4134 11.393 79.5956 11.6818 79.7259 12.0298C79.8561 12.3755 79.9212 12.7803 79.9212 13.2443V13.6598H75.3153V12.7223H78.4972C78.4972 12.5045 78.4498 12.3116 78.3551 12.1435C78.2604 11.9754 78.129 11.844 77.9609 11.7493C77.7952 11.6522 77.6023 11.6037 77.3821 11.6037C77.1525 11.6037 76.9489 11.657 76.7713 11.7635C76.5961 11.8677 76.4588 12.0085 76.3594 12.1861C76.2599 12.3613 76.209 12.5566 76.2067 12.772V13.6634C76.2067 13.9332 76.2564 14.1664 76.3558 14.3629C76.4576 14.5594 76.6009 14.7109 76.7855 14.8175C76.9702 14.924 77.1892 14.9773 77.4425 14.9773C77.6106 14.9773 77.7644 14.9536 77.9041 14.9062C78.0438 14.8589 78.1634 14.7879 78.2628 14.6932C78.3622 14.5985 78.438 14.4825 78.4901 14.3452L79.8892 14.4375C79.8182 14.7737 79.6726 15.0672 79.4524 15.3182C79.2346 15.5668 78.9529 15.7609 78.6072 15.9006C78.264 16.0379 77.8674 16.1065 77.4176 16.1065ZM83.2228 10.5455H84.7356V16.2699C84.7356 16.6913 84.6528 17.0322 84.487 17.2926C84.3213 17.553 84.0834 17.7436 83.7733 17.8643C83.4655 17.9851 83.0974 18.0455 82.6689 18.0455C82.6168 18.0455 82.5671 18.0443 82.5197 18.0419C82.47 18.0419 82.4179 18.0407 82.3635 18.0384V16.8558C82.4037 16.8582 82.4392 16.8594 82.47 16.8594C82.4984 16.8617 82.5292 16.8629 82.5623 16.8629C82.8062 16.8629 82.9766 16.8108 83.0737 16.7067C83.1731 16.6049 83.2228 16.451 83.2228 16.245V10.5455ZM83.9757 9.84233C83.7531 9.84233 83.5614 9.76776 83.4004 9.61861C83.2394 9.46709 83.1589 9.28598 83.1589 9.07528C83.1589 8.86695 83.2394 8.68821 83.4004 8.53906C83.5614 8.38755 83.7531 8.31179 83.9757 8.31179C84.2029 8.31179 84.3959 8.38755 84.5545 8.53906C84.7155 8.68821 84.796 8.86695 84.796 9.07528C84.796 9.28598 84.7155 9.46709 84.5545 9.61861C84.3959 9.76776 84.2029 9.84233 83.9757 9.84233ZM88.4119 16.1065C87.8603 16.1065 87.3833 15.9893 86.9808 15.755C86.5807 15.5182 86.2718 15.1892 86.054 14.7678C85.8362 14.344 85.7273 13.8527 85.7273 13.294C85.7273 12.7306 85.8362 12.2382 86.054 11.8168C86.2718 11.393 86.5807 11.0639 86.9808 10.8295C87.3833 10.5928 87.8603 10.4744 88.4119 10.4744C88.9635 10.4744 89.4394 10.5928 89.8395 10.8295C90.242 11.0639 90.5521 11.393 90.7699 11.8168C90.9877 12.2382 91.0966 12.7306 91.0966 13.294C91.0966 13.8527 90.9877 14.344 90.7699 14.7678C90.5521 15.1892 90.242 15.5182 89.8395 15.755C89.4394 15.9893 88.9635 16.1065 88.4119 16.1065ZM88.419 14.9347C88.67 14.9347 88.8795 14.8636 89.0476 14.7216C89.2157 14.5772 89.3423 14.3807 89.4276 14.1321C89.5152 13.8835 89.5589 13.6006 89.5589 13.2834C89.5589 12.9661 89.5152 12.6832 89.4276 12.4347C89.3423 12.1861 89.2157 11.9896 89.0476 11.8452C88.8795 11.7008 88.67 11.6286 88.419 11.6286C88.1657 11.6286 87.9527 11.7008 87.7798 11.8452C87.6094 11.9896 87.4804 12.1861 87.3928 12.4347C87.3075 12.6832 87.2649 12.9661 87.2649 13.2834C87.2649 13.6006 87.3075 13.8835 87.3928 14.1321C87.4804 14.3807 87.6094 14.5772 87.7798 14.7216C87.9527 14.8636 88.1657 14.9347 88.419 14.9347ZM92.1087 16V8.72727H93.6214V11.4616H93.6676C93.7339 11.3149 93.8298 11.1657 93.9553 11.0142C94.0831 10.8603 94.2488 10.7325 94.4524 10.6307C94.6584 10.5265 94.9141 10.4744 95.2195 10.4744C95.6172 10.4744 95.9841 10.5786 96.3203 10.7869C96.6565 10.9929 96.9252 11.3042 97.1264 11.7209C97.3277 12.1352 97.4283 12.6548 97.4283 13.2798C97.4283 13.8883 97.33 14.402 97.1335 14.821C96.9394 15.2377 96.6742 15.5537 96.3381 15.7692C96.0043 15.9822 95.6302 16.0888 95.2159 16.0888C94.9223 16.0888 94.6726 16.0402 94.4666 15.9432C94.263 15.8461 94.0961 15.7242 93.9659 15.5774C93.8357 15.4283 93.7363 15.2779 93.6676 15.1264H93.6001V16H92.1087ZM93.5895 13.2727C93.5895 13.5971 93.6345 13.88 93.7244 14.1214C93.8144 14.3629 93.9446 14.5511 94.1151 14.6861C94.2855 14.8187 94.4927 14.8849 94.7365 14.8849C94.9827 14.8849 95.1911 14.8175 95.3615 14.6825C95.532 14.5452 95.661 14.3558 95.7486 14.1143C95.8385 13.8705 95.8835 13.59 95.8835 13.2727C95.8835 12.9579 95.8397 12.6809 95.7521 12.4418C95.6645 12.2027 95.5355 12.0156 95.3651 11.8807C95.1946 11.7457 94.9851 11.6783 94.7365 11.6783C94.4903 11.6783 94.282 11.7434 94.1115 11.8736C93.9434 12.0038 93.8144 12.1884 93.7244 12.4276C93.6345 12.6667 93.5895 12.9484 93.5895 13.2727ZM102.976 12.1009L101.591 12.1861C101.567 12.0677 101.517 11.9612 101.438 11.8665C101.36 11.7694 101.257 11.6925 101.129 11.6357C101.004 11.5765 100.854 11.5469 100.678 11.5469C100.444 11.5469 100.246 11.5966 100.085 11.696C99.9244 11.7931 99.8439 11.9233 99.8439 12.0866C99.8439 12.2169 99.896 12.3269 100 12.4169C100.104 12.5069 100.283 12.5791 100.536 12.6335L101.524 12.8324C102.054 12.9413 102.449 13.1165 102.71 13.358C102.97 13.5994 103.1 13.9167 103.1 14.3097C103.1 14.6671 102.995 14.9808 102.784 15.2507C102.576 15.5206 102.289 15.7313 101.925 15.8828C101.563 16.032 101.145 16.1065 100.671 16.1065C99.9493 16.1065 99.374 15.9562 98.9455 15.6555C98.5194 15.3525 98.2696 14.9406 98.1962 14.4197L99.6841 14.3416C99.7291 14.5618 99.838 14.7299 100.011 14.8459C100.184 14.9595 100.405 15.0163 100.675 15.0163C100.94 15.0163 101.153 14.9654 101.314 14.8636C101.477 14.7595 101.56 14.6257 101.563 14.4624C101.56 14.325 101.502 14.2126 101.389 14.125C101.275 14.035 101.1 13.9664 100.863 13.919L99.9185 13.7308C99.3858 13.6243 98.9893 13.4396 98.7289 13.1768C98.4708 12.9141 98.3418 12.5791 98.3418 12.1719C98.3418 11.8215 98.4365 11.5196 98.6259 11.2663C98.8176 11.013 99.0864 10.8177 99.432 10.6804C99.78 10.5431 100.187 10.4744 100.654 10.4744C101.343 10.4744 101.885 10.62 102.28 10.9112C102.678 11.2024 102.91 11.599 102.976 12.1009Z" fill="#FEFDF7"/>
<defs>
<filter id="filter0_d_2050_271" x="0" y="0" width="112" height="33" filterUnits="userSpaceOnUse" color-interpolation-filters="sRGB">
<feFlood flood-opacity="0" result="BackgroundImageFix"/>
<feColorMatrix in="SourceAlpha" type="matrix" values="0 0 0 0 0 0 0 0 0 0 0 0 0 0 0 0 0 0 127 0" result="hardAlpha"/>
<feOffset dy="4"/>
<feGaussianBlur stdDeviation="2"/>
<feComposite in2="hardAlpha" operator="out"/>
<feColorMatrix type="matrix" values="0 0 0 0 0 0 0 0 0 0 0 0 0 0 0 0 0 0 0.25 0"/>
<feBlend mode="normal" in2="BackgroundImageFix" result="effect1_dropShadow_2050_271"/>
<feBlend mode="normal" in="SourceGraphic" in2="effect1_dropShadow_2050_271" result="shape"/>
</filter>
</defs>
</svg>
