<svg width="87" height="34" viewBox="0 0 87 34" fill="none" xmlns="http://www.w3.org/2000/svg">
<g filter="url(#filter0_d_206_32)">
<rect x="4" width="79" height="26" rx="5" fill="#142864"/>
</g>
<path d="M27.7585 18V9.27273H31.2528C31.8949 9.27273 32.4304 9.3679 32.8594 9.55824C33.2884 9.74858 33.6108 10.0128 33.8267 10.3509C34.0426 10.6861 34.1506 11.0724 34.1506 11.5099C34.1506 11.8509 34.0824 12.1506 33.946 12.4091C33.8097 12.6648 33.6222 12.875 33.3835 13.0398C33.1477 13.2017 32.8778 13.3168 32.5739 13.3849V13.4702C32.9063 13.4844 33.2173 13.5781 33.5071 13.7514C33.7997 13.9247 34.0369 14.1676 34.2188 14.4801C34.4006 14.7898 34.4915 15.1591 34.4915 15.5881C34.4915 16.0511 34.3764 16.4645 34.1463 16.8281C33.919 17.1889 33.5824 17.4744 33.1364 17.6847C32.6903 17.8949 32.1406 18 31.4872 18H27.7585ZM29.6037 16.4915H31.108C31.6222 16.4915 31.9972 16.3935 32.233 16.1974C32.4688 15.9986 32.5866 15.7344 32.5866 15.4048C32.5866 15.1634 32.5284 14.9503 32.4119 14.7656C32.2955 14.581 32.1293 14.4361 31.9134 14.331C31.7003 14.2259 31.446 14.1733 31.1506 14.1733H29.6037V16.4915ZM29.6037 12.9247H30.9716C31.2244 12.9247 31.4489 12.8807 31.6449 12.7926C31.8438 12.7017 32 12.5739 32.1136 12.4091C32.2301 12.2443 32.2884 12.0469 32.2884 11.8168C32.2884 11.5014 32.1761 11.2472 31.9517 11.054C31.7301 10.8608 31.4148 10.7642 31.0057 10.7642H29.6037V12.9247ZM37.1964 18H35.2191L38.2319 9.27273H40.6097L43.6183 18H41.641L39.4549 11.267H39.3867L37.1964 18ZM37.0728 14.5696H41.7433V16.0099H37.0728V14.5696ZM51.9588 12.3281H50.0923C50.0582 12.0866 49.9886 11.8722 49.8835 11.6847C49.7784 11.4943 49.6435 11.3324 49.4787 11.1989C49.3139 11.0653 49.1236 10.9631 48.9077 10.892C48.6946 10.821 48.4631 10.7855 48.2131 10.7855C47.7614 10.7855 47.3679 10.8977 47.0327 11.1222C46.6974 11.3437 46.4375 11.6676 46.2528 12.0938C46.0682 12.517 45.9759 13.0312 45.9759 13.6364C45.9759 14.2585 46.0682 14.7812 46.2528 15.2045C46.4403 15.6278 46.7017 15.9474 47.0369 16.1634C47.3722 16.3793 47.7599 16.4872 48.2003 16.4872C48.4474 16.4872 48.6761 16.4545 48.8864 16.3892C49.0994 16.3239 49.2884 16.2287 49.4531 16.1037C49.6179 15.9759 49.7543 15.821 49.8622 15.6392C49.973 15.4574 50.0497 15.25 50.0923 15.017L51.9588 15.0256C51.9105 15.4261 51.7898 15.8125 51.5966 16.1847C51.4063 16.554 51.1491 16.8849 50.8253 17.1776C50.5043 17.4673 50.1207 17.6974 49.6747 17.8679C49.2315 18.0355 48.7301 18.1193 48.1705 18.1193C47.392 18.1193 46.696 17.9432 46.0824 17.5909C45.4716 17.2386 44.9886 16.7287 44.6335 16.0611C44.2812 15.3935 44.1051 14.5852 44.1051 13.6364C44.1051 12.6847 44.2841 11.875 44.642 11.2074C45 10.5398 45.4858 10.0312 46.0994 9.68182C46.7131 9.32955 47.4034 9.15341 48.1705 9.15341C48.6761 9.15341 49.1449 9.22443 49.5767 9.36648C50.0114 9.50852 50.3963 9.71591 50.7315 9.98864C51.0668 10.2585 51.3395 10.5895 51.5497 10.9815C51.7628 11.3736 51.8991 11.8224 51.9588 12.3281ZM53.282 18V9.27273H55.1271V13.1207H55.2422L58.3828 9.27273H60.5945L57.3558 13.1804L60.6328 18H58.4254L56.0348 14.4119L55.1271 15.5199V18H53.282Z" fill="#FEFDF7"/>
<defs>
<filter id="filter0_d_206_32" x="0" y="0" width="87" height="34" filterUnits="userSpaceOnUse" color-interpolation-filters="sRGB">
<feFlood flood-opacity="0" result="BackgroundImageFix"/>
<feColorMatrix in="SourceAlpha" type="matrix" values="0 0 0 0 0 0 0 0 0 0 0 0 0 0 0 0 0 0 127 0" result="hardAlpha"/>
<feOffset dy="4"/>
<feGaussianBlur stdDeviation="2"/>
<feComposite in2="hardAlpha" operator="out"/>
<feColorMatrix type="matrix" values="0 0 0 0 0 0 0 0 0 0 0 0 0 0 0 0 0 0 0.25 0"/>
<feBlend mode="normal" in2="BackgroundImageFix" result="effect1_dropShadow_206_32"/>
<feBlend mode="normal" in="SourceGraphic" in2="effect1_dropShadow_206_32" result="shape"/>
</filter>
</defs>
</svg>
