<svg width="87" height="34" viewBox="0 0 87 34" fill="none" xmlns="http://www.w3.org/2000/svg">
<g filter="url(#filter0_d_2047_269)">
<rect x="4" width="79" height="26" rx="5" fill="#55DF63"/>
</g>
<path d="M26.2628 17H24.2855L27.2983 8.27273H29.6761L32.6847 17H30.7074L28.5213 10.267H28.4531L26.2628 17ZM26.1392 13.5696H30.8097V15.0099H26.1392V13.5696ZM33.7351 17V8.27273H37.1783C37.8402 8.27273 38.4041 8.39915 38.87 8.65199C39.3359 8.90199 39.6911 9.25 39.9354 9.69602C40.1825 10.1392 40.3061 10.6506 40.3061 11.2301C40.3061 11.8097 40.1811 12.321 39.9311 12.7642C39.6811 13.2074 39.3189 13.5526 38.8445 13.7997C38.3729 14.0469 37.8018 14.1705 37.1314 14.1705H34.9368V12.6918H36.8331C37.1882 12.6918 37.4808 12.6307 37.7109 12.5085C37.9439 12.3835 38.1172 12.2116 38.2308 11.9929C38.3473 11.7713 38.4055 11.517 38.4055 11.2301C38.4055 10.9403 38.3473 10.6875 38.2308 10.4716C38.1172 10.2528 37.9439 10.0838 37.7109 9.96449C37.478 9.84233 37.1825 9.78125 36.8246 9.78125H35.5803V17H33.7351ZM41.5046 17V8.27273H44.9478C45.6097 8.27273 46.1737 8.39915 46.6396 8.65199C47.1055 8.90199 47.4606 9.25 47.7049 9.69602C47.9521 10.1392 48.0756 10.6506 48.0756 11.2301C48.0756 11.8097 47.9506 12.321 47.7006 12.7642C47.4506 13.2074 47.0884 13.5526 46.614 13.7997C46.1424 14.0469 45.5714 14.1705 44.9009 14.1705H42.7063V12.6918H44.6026C44.9577 12.6918 45.2504 12.6307 45.4805 12.5085C45.7134 12.3835 45.8867 12.2116 46.0004 11.9929C46.1168 11.7713 46.1751 11.517 46.1751 11.2301C46.1751 10.9403 46.1168 10.6875 46.0004 10.4716C45.8867 10.2528 45.7134 10.0838 45.4805 9.96449C45.2475 9.84233 44.9521 9.78125 44.5941 9.78125H43.3498V17H41.5046ZM49.2741 17V8.27273H51.1193V15.4787H54.8608V17H49.2741ZM54.4581 8.27273H56.5249L58.5149 12.0312H58.6001L60.5902 8.27273H62.657L59.4737 13.9148V17H57.6413V13.9148L54.4581 8.27273Z" fill="#FEFDF7"/>
<defs>
<filter id="filter0_d_2047_269" x="0" y="0" width="87" height="34" filterUnits="userSpaceOnUse" color-interpolation-filters="sRGB">
<feFlood flood-opacity="0" result="BackgroundImageFix"/>
<feColorMatrix in="SourceAlpha" type="matrix" values="0 0 0 0 0 0 0 0 0 0 0 0 0 0 0 0 0 0 127 0" result="hardAlpha"/>
<feOffset dy="4"/>
<feGaussianBlur stdDeviation="2"/>
<feComposite in2="hardAlpha" operator="out"/>
<feColorMatrix type="matrix" values="0 0 0 0 0 0 0 0 0 0 0 0 0 0 0 0 0 0 0.25 0"/>
<feBlend mode="normal" in2="BackgroundImageFix" result="effect1_dropShadow_2047_269"/>
<feBlend mode="normal" in="SourceGraphic" in2="effect1_dropShadow_2047_269" result="shape"/>
</filter>
</defs>
</svg>
