<svg width="45" height="19" viewBox="0 0 45 19" fill="none" xmlns="http://www.w3.org/2000/svg">
<g clip-path="url(#clip0_204_2702)">
<path d="M2.24408 4.84331L8.8526 0.691749C9.53282 0.264952 10.3051 0.0399827 11.0928 0.039057L39.4993 0.00567787C41.9724 0.00277195 43.9814 2.17742 43.9845 4.86065L43.9943 13.1455C43.9974 15.8287 41.9935 18.0081 39.5205 18.011L11.114 18.0443C10.3288 18.0453 9.556 17.8221 8.87478 17.3969L2.25652 13.2637C-0.731138 11.3972 -0.736635 6.71954 2.24663 4.84607L2.24408 4.84331Z" fill="#142864"/>
</g>
<path d="M12.6323 12.0018L12.6327 4.7291L15.5446 4.72893C16.0797 4.7289 16.5259 4.80818 16.8834 4.96678C17.2409 5.12537 17.5096 5.34553 17.6895 5.62724C17.8694 5.90659 17.9593 6.22855 17.9593 6.59313C17.9593 6.87723 17.9024 7.12699 17.7888 7.34243C17.6751 7.55551 17.5189 7.73071 17.32 7.86803C17.1235 8.00298 16.8986 8.09888 16.6453 8.15571L16.6453 8.22673C16.9223 8.23855 17.1815 8.31666 17.423 8.46106C17.6668 8.60546 17.8645 8.80787 18.016 9.06827C18.1675 9.32631 18.2432 9.63407 18.2432 9.99156C18.2431 10.3774 18.1472 10.7219 17.9555 11.025C17.7661 11.3256 17.4855 11.5636 17.1138 11.7388C16.7421 11.914 16.284 12.0016 15.7395 12.0016L12.6323 12.0018ZM14.17 10.7446L15.4235 10.7446C15.852 10.7445 16.1645 10.6628 16.361 10.4995C16.5575 10.3337 16.6558 10.1136 16.6558 9.83895C16.6558 9.63772 16.6073 9.46016 16.5103 9.30629C16.4132 9.15241 16.2747 9.03168 16.0948 8.94409C15.9172 8.85651 15.7054 8.81273 15.4592 8.81274L14.1701 8.81281L14.17 10.7446ZM14.1702 7.77233L15.3101 7.77227C15.5208 7.77225 15.7078 7.73555 15.8712 7.66215C16.0369 7.58638 16.1671 7.47984 16.2618 7.34252C16.3589 7.20521 16.4074 7.04067 16.4074 6.84891C16.4074 6.58612 16.3139 6.37424 16.1269 6.21327C15.9423 6.05229 15.6795 5.97182 15.3386 5.97184L14.1703 5.97191L14.1702 7.77233ZM20.4971 12.0014L18.8494 12.0015L21.3605 4.72859L23.342 4.72847L25.8487 12.0011L24.201 12.0012L22.3796 6.39046L22.3228 6.39047L20.4971 12.0014ZM20.3943 9.14271L24.2864 9.14248L24.2863 10.3428L20.3943 10.343L20.3943 9.14271ZM32.7994 7.27409L31.244 7.27418C31.2157 7.07295 31.1577 6.89421 31.0701 6.73797C30.9825 6.57936 30.87 6.44442 30.7327 6.33316C30.5954 6.2219 30.4368 6.13668 30.2569 6.0775C30.0794 6.01833 29.8864 5.98875 29.6781 5.98876C29.3017 5.98878 28.9738 6.08231 28.6944 6.26936C28.415 6.45403 28.1984 6.72393 28.0445 7.07905C27.8906 7.43181 27.8136 7.86032 27.8136 8.36458C27.8136 8.88304 27.8905 9.31865 28.0443 9.67138C28.2006 10.0241 28.4183 10.2904 28.6977 10.4704C28.977 10.6503 29.3002 10.7402 29.6671 10.7402C29.8731 10.7402 30.0637 10.7129 30.2389 10.6585C30.4164 10.604 30.5739 10.5247 30.7112 10.4205C30.8485 10.314 30.9621 10.1849 31.0521 10.0334C31.1445 9.8819 31.2084 9.70908 31.2439 9.51495L32.7993 9.52196C32.759 9.85577 32.6584 10.1777 32.4974 10.4879C32.3388 10.7957 32.1245 11.0715 31.8546 11.3153C31.5871 11.5568 31.2674 11.7486 30.8958 11.8907C30.5264 12.0304 30.1086 12.1002 29.6422 12.1003C28.9935 12.1003 28.4135 11.9536 27.9022 11.66C27.3932 11.3665 26.9907 10.9416 26.6949 10.3852C26.4013 9.82891 26.2546 9.15539 26.2546 8.36467C26.2547 7.57158 26.4039 6.89686 26.7022 6.3405C27.0005 5.78413 27.4054 5.36034 27.9168 5.06912C28.4282 4.77553 29.0034 4.62871 29.6426 4.62868C30.064 4.62865 30.4547 4.68781 30.8145 4.80616C31.1767 4.92451 31.4975 5.09732 31.7768 5.32457C32.0562 5.54946 32.2834 5.82526 32.4586 6.15195C32.6361 6.47864 32.7498 6.85269 32.7994 7.27409ZM33.9018 12.0006L33.9022 4.72786L35.4399 4.72777L35.4397 7.93445L35.5356 7.93444L38.1529 4.72761L39.996 4.72751L37.2969 7.98405L40.0275 12.0002L38.188 12.0003L36.196 9.0104L35.4396 9.93374L35.4394 12.0005L33.9018 12.0006Z" fill="#FEFDF7"/>
<defs>
<clipPath id="clip0_204_2702">
<rect width="43.9789" height="18.0053" fill="white" transform="translate(44 18.0057) rotate(179.933)"/>
</clipPath>
</defs>
</svg>
