<svg width="110" height="39" viewBox="0 0 110 39" fill="none" xmlns="http://www.w3.org/2000/svg">
<g filter="url(#filter0_d_2041_248)">
<rect x="4.97363" y="0.0449219" width="100.48" height="30.7865" rx="5" fill="#FFFEFE"/>
</g>
<path d="M14.9299 20.2285V10.774H21.3006V12.4221H16.9288V14.6749H20.9729V16.323H16.9288V18.5804H21.3191V20.2285H14.9299ZM24.5195 20.2285H22.3774L25.6413 10.774H28.2173L31.4765 20.2285H29.3345L26.9662 12.9345H26.8923L24.5195 20.2285ZM24.3856 16.5123H29.4452V18.0726H24.3856V16.5123ZM37.5275 13.4931C37.4906 13.1207 37.3321 12.8314 37.052 12.6252C36.772 12.419 36.3919 12.3159 35.9118 12.3159C35.5855 12.3159 35.3101 12.362 35.0854 12.4544C34.8608 12.5436 34.6884 12.6683 34.5684 12.8283C34.4514 12.9883 34.393 13.1699 34.393 13.373C34.3868 13.5423 34.4222 13.69 34.4991 13.8162C34.5792 13.9424 34.6884 14.0517 34.8269 14.144C34.9654 14.2333 35.1254 14.3117 35.307 14.3794C35.4886 14.4441 35.6825 14.4995 35.8887 14.5456L36.7381 14.7488C37.1505 14.8411 37.5291 14.9642 37.8738 15.1181C38.2185 15.272 38.517 15.4612 38.7694 15.6859C39.0217 15.9106 39.2172 16.1752 39.3557 16.4799C39.4972 16.7846 39.5696 17.1339 39.5726 17.5279C39.5696 18.1065 39.4218 18.6081 39.1295 19.0328C38.8402 19.4545 38.4216 19.7823 37.8738 20.0162C37.329 20.247 36.672 20.3624 35.9025 20.3624C35.1393 20.3624 34.4745 20.2454 33.9082 20.0115C33.345 19.7776 32.9049 19.4314 32.5879 18.9728C32.274 18.5112 32.1093 17.9403 32.0939 17.2601H34.0283C34.0498 17.5771 34.1406 17.8418 34.3006 18.0542C34.4637 18.2634 34.6807 18.4219 34.9515 18.5297C35.2255 18.6343 35.5348 18.6866 35.8795 18.6866C36.218 18.6866 36.5119 18.6374 36.7612 18.5389C37.0136 18.4404 37.209 18.3034 37.3475 18.128C37.486 17.9526 37.5552 17.751 37.5552 17.5233C37.5552 17.3109 37.4922 17.1324 37.366 16.9877C37.2429 16.8431 37.0613 16.72 36.8212 16.6184C36.5842 16.5169 36.2934 16.4245 35.9487 16.3414L34.9192 16.0829C34.1221 15.889 33.4927 15.5859 33.0311 15.1735C32.5694 14.7611 32.3402 14.2056 32.3432 13.5069C32.3402 12.9345 32.4925 12.4344 32.8003 12.0066C33.1111 11.5788 33.5374 11.2449 34.079 11.0048C34.6207 10.7647 35.2362 10.6447 35.9256 10.6447C36.6273 10.6447 37.2398 10.7647 37.763 11.0048C38.2893 11.2449 38.6986 11.5788 38.991 12.0066C39.2833 12.4344 39.4341 12.9299 39.4434 13.4931H37.5275ZM40.3632 10.774H42.6022L44.7581 14.8457H44.8504L47.0063 10.774H49.2453L45.7968 16.8862V20.2285H43.8117V16.8862L40.3632 10.774ZM54.9755 20.2285H52.8335L56.0973 10.774H58.6733L61.9326 20.2285H59.7905L57.4223 12.9345H57.3484L54.9755 20.2285ZM54.8416 16.5123H59.9013V18.0726H54.8416V16.5123ZM63.0705 20.2285V10.774H66.8006C67.5177 10.774 68.1286 10.9109 68.6334 11.1848C69.1381 11.4557 69.5228 11.8327 69.7875 12.3159C70.0552 12.796 70.1891 13.35 70.1891 13.9778C70.1891 14.6056 70.0537 15.1596 69.7829 15.6397C69.512 16.1199 69.1196 16.4938 68.6057 16.7615C68.0948 17.0293 67.4762 17.1632 66.7498 17.1632H64.3724V15.5613H66.4267C66.8114 15.5613 67.1284 15.4951 67.3777 15.3627C67.6301 15.2273 67.8178 15.0411 67.9409 14.8042C68.0671 14.5641 68.1302 14.2886 68.1302 13.9778C68.1302 13.6639 68.0671 13.39 67.9409 13.1561C67.8178 12.9191 67.6301 12.736 67.3777 12.6067C67.1253 12.4744 66.8052 12.4082 66.4175 12.4082H65.0694V20.2285H63.0705ZM71.4875 20.2285V10.774H75.2176C75.9347 10.774 76.5456 10.9109 77.0504 11.1848C77.5551 11.4557 77.9398 11.8327 78.2045 12.3159C78.4722 12.796 78.6061 13.35 78.6061 13.9778C78.6061 14.6056 78.4707 15.1596 78.1999 15.6397C77.929 16.1199 77.5366 16.4938 77.0227 16.7615C76.5118 17.0293 75.8932 17.1632 75.1668 17.1632H72.7894V15.5613H74.8437C75.2284 15.5613 75.5454 15.4951 75.7947 15.3627C76.047 15.2273 76.2348 15.0411 76.3579 14.8042C76.4841 14.5641 76.5472 14.2886 76.5472 13.9778C76.5472 13.6639 76.4841 13.39 76.3579 13.1561C76.2348 12.9191 76.047 12.736 75.7947 12.6067C75.5423 12.4744 75.2222 12.4082 74.8345 12.4082H73.4864V20.2285H71.4875ZM79.9045 20.2285V10.774H81.9034V18.5804H85.9567V20.2285H79.9045ZM85.5204 10.774H87.7594L89.9153 14.8457H90.0077L92.1636 10.774H94.4025L90.954 16.8862V20.2285H88.969V16.8862L85.5204 10.774Z" fill="#55DF63"/>
<defs>
<filter id="filter0_d_2041_248" x="0.973633" y="0.0449219" width="108.48" height="38.7865" filterUnits="userSpaceOnUse" color-interpolation-filters="sRGB">
<feFlood flood-opacity="0" result="BackgroundImageFix"/>
<feColorMatrix in="SourceAlpha" type="matrix" values="0 0 0 0 0 0 0 0 0 0 0 0 0 0 0 0 0 0 127 0" result="hardAlpha"/>
<feOffset dy="4"/>
<feGaussianBlur stdDeviation="2"/>
<feComposite in2="hardAlpha" operator="out"/>
<feColorMatrix type="matrix" values="0 0 0 0 0 0 0 0 0 0 0 0 0 0 0 0 0 0 0.25 0"/>
<feBlend mode="normal" in2="BackgroundImageFix" result="effect1_dropShadow_2041_248"/>
<feBlend mode="normal" in="SourceGraphic" in2="effect1_dropShadow_2041_248" result="shape"/>
</filter>
</defs>
</svg>
