<svg width="34" height="25" viewBox="0 0 34 25" fill="none" xmlns="http://www.w3.org/2000/svg">
<mask id="mask0_133_163" style="mask-type:luminance" maskUnits="userSpaceOnUse" x="0" y="0" width="34" height="25">
<path d="M31.3733 0H2.2421C1.00382 0 0 1.00357 0 2.24154V22.0076C0 23.2455 1.00382 24.2491 2.2421 24.2491H31.3733C32.6116 24.2491 33.6154 23.2455 33.6154 22.0076V2.24154C33.6154 1.00357 32.6116 0 31.3733 0Z" fill="white"/>
</mask>
<g mask="url(#mask0_133_163)">
<path d="M31.3733 0H2.2421C1.00382 0 0 1.00357 0 2.24154V22.0076C0 23.2455 1.00382 24.2491 2.2421 24.2491H31.3733C32.6116 24.2491 33.6154 23.2455 33.6154 22.0076V2.24154C33.6154 1.00357 32.6116 0 31.3733 0Z" fill="#142864"/>
<path d="M12.884 0.0063839L12.884 24.2555H20.7314V0.0063839H12.884Z" fill="#FEFDF7"/>
<path d="M33.6154 8.2019H0V16.0473H33.6154V8.2019Z" fill="#FEFDF7"/>
<path d="M0.577362 -1.86911L-1.8508 1.44409L31.8543 26.1335L34.2824 22.8203L0.577362 -1.86911Z" fill="#FEFDF7"/>
<path d="M12.1741 8.20189H9.99307L-0.947586 0.189505L-0.0385413 -1.04688L12.1741 8.20189Z" fill="#ED1C24"/>
<path d="M0.0159158 22.8189L2.44408 26.1321L36.1491 1.44271L33.721 -1.87049L0.0159158 22.8189Z" fill="#FEFDF7"/>
<path d="M33.6154 9.40613H0V14.8558H33.6154V9.40613Z" fill="#ED1C24"/>
<path d="M14.0436 -0.00967407L14.0436 24.2555H19.4947V-0.00967407H14.0436Z" fill="#ED1C24"/>
<path d="M22.2122 8.20189H24.1202L35.1701 0.109221L34.3221 -1.04688L22.2122 8.20189Z" fill="#ED1C24"/>
<path d="M13.1217 16.0472H10.9407L0 24.0596L0.905833 25.296L13.1217 16.0472Z" fill="#ED1C24"/>
<path d="M20.7314 16.0472H22.9124L33.8531 24.0596L32.9473 25.296L20.7314 16.0472Z" fill="#ED1C24"/>
</g>
</svg>
