<svg width="74" height="44" viewBox="0 0 74 44" fill="none" xmlns="http://www.w3.org/2000/svg">
<g id="Layer_1" clip-path="url(#clip0_21_1340)">
<path id="Vector" d="M53.2634 42.7921V26.3859C53.2634 26.041 52.9827 25.7615 52.6364 25.7615H50.5723C50.2261 25.7615 49.9454 26.041 49.9454 26.3859V42.7921C49.9454 43.137 50.2261 43.4165 50.5723 43.4165H52.6364C52.9827 43.4165 53.2634 43.137 53.2634 42.7921Z" fill="#142864"/>
<path id="Vector_2" d="M51.6044 24.7362C53.0672 24.7362 54.253 23.5552 54.253 22.0984C54.253 20.6417 53.0672 19.4607 51.6044 19.4607C50.1416 19.4607 48.9558 20.6417 48.9558 22.0984C48.9558 23.5552 50.1416 24.7362 51.6044 24.7362Z" fill="#55DF63"/>
<path id="Vector_3" d="M58.477 40.0289C58.597 39.6315 59.0494 39.4419 59.4193 39.6315C60.9073 40.3936 62.8561 40.9733 64.8935 40.9733C68.4178 40.9733 70.4758 39.1206 70.4758 36.4382C70.4758 33.9538 69.0508 32.5347 65.4478 31.1542C61.0928 29.6168 58.4006 27.3691 58.4006 23.6226C58.4006 19.4824 61.8447 16.4062 67.0316 16.4062C69.388 16.4062 71.184 16.8761 72.3955 17.4341C72.7048 17.5766 72.8564 17.928 72.7472 18.2493L72.2245 19.788C72.0984 20.16 71.6788 20.3411 71.3186 20.1793C70.3375 19.7385 68.824 19.2445 66.9115 19.2445C63.2685 19.2445 61.8835 21.4136 61.8835 23.2265C61.8835 25.7109 63.5074 26.9331 67.1893 28.3522C71.7031 30.0878 73.9988 32.2557 73.9988 36.1592C73.9988 40.2596 70.95 43.8092 64.6546 43.8092C62.3383 43.8092 59.8279 43.2017 58.3108 42.3901C58.0343 42.2415 57.9033 41.9178 57.9943 41.6183L58.4757 40.0265L58.477 40.0289Z" fill="#1743D8"/>
<path id="Vector_4" d="M39.6116 42.7921V26.3859C39.6116 26.041 39.3309 25.7615 38.9846 25.7615H36.9206C36.5743 25.7615 36.2936 26.041 36.2936 26.3859V42.7921C36.2936 43.137 36.5743 43.4165 36.9206 43.4165H38.9846C39.3309 43.4165 39.6116 43.137 39.6116 42.7921Z" fill="#142864"/>
<path id="Vector_5" d="M47.6193 30.5371C47.281 30.5371 46.9475 30.3874 46.7243 30.1011C45.588 28.6434 44.4177 27.9127 43.2523 27.9272C41.2658 27.9525 39.6892 30.054 39.6735 30.0758C39.3036 30.5758 38.5954 30.6857 38.0921 30.3185C37.5888 29.9514 37.476 29.2497 37.8435 28.7472C37.9332 28.6241 40.0846 25.7218 43.2062 25.6723C45.1272 25.6421 46.9135 26.6663 48.5131 28.7183C48.8963 29.2098 48.8066 29.9188 48.313 30.3004C48.1069 30.4599 47.8619 30.5371 47.6193 30.5371Z" fill="#142864"/>
<path id="Vector_6" d="M36.353 20.4463H22.0585C21.735 20.4463 21.4727 20.7075 21.4727 21.0296V23.1674C21.4727 23.4896 21.735 23.7507 22.0585 23.7507H36.353C36.6765 23.7507 36.9388 23.4896 36.9388 23.1674V21.0296C36.9388 20.7075 36.6765 20.4463 36.353 20.4463Z" fill="#142864"/>
<path id="Vector_7" d="M30.5549 42.7452V23.5997C30.5549 23.2282 30.2525 22.927 29.8794 22.927H27.9123C27.5393 22.927 27.2369 23.2282 27.2369 23.5997V42.7452C27.2369 43.1167 27.5393 43.4179 27.9123 43.4179H29.8794C30.2525 43.4179 30.5549 43.1167 30.5549 42.7452Z" fill="#142864"/>
<g id="Group">
<path id="Vector_8" d="M7.3504 26.0745C6.62397 26.0745 6.03579 25.4887 6.03579 24.7652C6.03579 24.0418 6.62397 23.456 7.3504 23.456C12.9666 23.456 17.535 18.9064 17.535 13.3132C17.535 7.72009 12.9654 3.17044 7.3504 3.17044C5.65499 3.17044 3.97656 3.59316 2.49703 4.39391C1.85913 4.73933 1.06114 4.50381 0.714302 3.86853C0.367459 3.23325 0.603943 2.43854 1.24184 2.09312C3.10461 1.08585 5.21719 0.553223 7.3504 0.553223C14.4158 0.553223 20.163 6.27802 20.163 13.3132C20.163 20.3485 14.4146 26.0745 7.3504 26.0745Z" fill="#1743D8"/>
<path id="Vector_9" d="M7.35061 26.6263C6.31978 26.6263 5.48178 25.7906 5.48178 24.7652C5.48178 23.7398 6.31978 22.904 7.35061 22.904C12.66 22.904 16.9797 18.602 16.9797 13.3144C16.9797 8.02679 12.66 3.72353 7.35061 3.72353C5.74737 3.72353 4.1599 4.1233 2.76161 4.87936C1.85691 5.36971 0.719363 5.03395 0.226992 4.13176C-0.265379 3.22956 0.0717618 2.09668 0.977676 1.60753C2.92169 0.555571 5.12524 0 7.35061 0C14.7216 0 20.7186 5.97239 20.7186 13.3132C20.7186 20.6539 14.7216 26.6263 7.35061 26.6263ZM7.35061 2.61843C13.2724 2.61843 18.0894 7.41687 18.0894 13.3132C18.0894 19.2095 13.2724 24.0079 7.35061 24.0079C6.93222 24.0079 6.59144 24.3473 6.59144 24.764C6.59144 25.1806 6.93222 25.52 7.35061 25.52C14.1104 25.52 19.609 20.044 19.609 13.312C19.609 6.57989 14.1092 1.1051 7.35061 1.1051C5.30957 1.1051 3.28915 1.61478 1.50643 2.57857C1.13897 2.77785 1.00193 3.23801 1.20203 3.60396C1.40213 3.96992 1.86419 4.10639 2.23165 3.90711C3.79244 3.06289 5.56182 2.61722 7.35061 2.61722V2.61843Z" fill="#1743D8"/>
</g>
<g id="Group_2">
<path id="Vector_10" d="M18.8496 43.5158C18.4239 43.5158 18.0055 43.3105 17.7533 42.9301L6.14251 25.4888C5.74109 24.8861 5.90724 24.0733 6.51118 23.6747C7.11634 23.2749 7.93251 23.4404 8.33271 24.0419L19.9435 41.4832C20.3449 42.0858 20.1787 42.8974 19.5748 43.2972C19.3516 43.4446 19.0994 43.5158 18.8496 43.5158Z" fill="#1743D8"/>
<path id="Vector_11" d="M18.8496 44.0001C18.2432 44.0001 17.6829 43.7006 17.3482 43.1981L5.73746 25.7556C5.47187 25.3571 5.37849 24.8788 5.47308 24.409C5.56768 23.9392 5.84175 23.5358 6.24317 23.2713C6.64337 23.0068 7.12483 22.9138 7.59537 23.008C8.06713 23.1034 8.47218 23.3751 8.73777 23.7737L20.3485 41.2162C20.6141 41.6148 20.7075 42.093 20.6129 42.5629C20.5171 43.0315 20.2442 43.4361 19.844 43.7006C19.5481 43.8962 19.2049 43.9989 18.8508 43.9989L18.8496 44.0001ZM7.2364 23.9392C7.07511 23.9392 6.91745 23.9863 6.78041 24.0768C6.59608 24.1988 6.46995 24.3848 6.42629 24.601C6.38264 24.8172 6.42629 25.037 6.54757 25.2206L18.1583 42.6619C18.3123 42.8938 18.5706 43.0315 18.8508 43.0315C19.0133 43.0315 19.1709 42.9844 19.308 42.8938C19.4923 42.7718 19.6184 42.5858 19.6621 42.3696C19.7058 42.1534 19.6621 41.9336 19.5408 41.75L7.93009 24.3075C7.8076 24.1239 7.62084 23.9983 7.40376 23.9549C7.34797 23.944 7.29219 23.938 7.23761 23.938L7.2364 23.9392Z" fill="#1743D8"/>
</g>
<path id="Vector_12" d="M7.23762 20.404C11.1699 20.404 14.3576 17.2293 14.3576 13.3132C14.3576 9.39706 11.1699 6.22241 7.23762 6.22241C3.30536 6.22241 0.117638 9.39706 0.117638 13.3132C0.117638 17.2293 3.30536 20.404 7.23762 20.404Z" fill="#55DF63"/>
</g>
<defs>
<clipPath id="clip0_21_1340">
<rect width="74" height="44" fill="white"/>
</clipPath>
</defs>
</svg>
