<svg width="32" height="23" viewBox="0 0 32 23" fill="none" xmlns="http://www.w3.org/2000/svg">
<g clip-path="url(#clip0_22_1939)">
<path d="M29.8656 0H2.13435C0.955582 0 0 0.951877 0 2.12608V20.8739C0 22.0481 0.955582 23 2.13435 23H29.8656C31.0444 23 32 22.0481 32 20.8739V2.12608C32 0.951877 31.0444 0 29.8656 0Z" fill="#FEFDF7"/>
<path d="M15.9985 18.7753C20.0313 18.7753 23.3005 15.5187 23.3005 11.5015C23.3005 7.48435 20.0313 4.22778 15.9985 4.22778C11.9657 4.22778 8.69641 7.48435 8.69641 11.5015C8.69641 15.5187 11.9657 18.7753 15.9985 18.7753Z" fill="#FF0000"/>
</g>
<defs>
<clipPath id="clip0_22_1939">
<rect width="32" height="23" fill="white"/>
</clipPath>
</defs>
</svg>
