<svg width="8" height="14" viewBox="0 0 8 14" fill="none" xmlns="http://www.w3.org/2000/svg">
<g id="Layer_1" clip-path="url(#clip0_22_1953)">
<path id="Vector" d="M6.20341 0.673003C5.57925 0.249627 4.82595 0 4.00055 0C3.46894 0 2.96854 0.10337 2.51226 0.290315C0.659149 1.04909 -0.453576 3.17587 0.179192 5.28285L2.30133 12.3494L2.44338 12.8244C2.91473 14.3926 5.08638 14.3926 5.55772 12.8244L7.82192 5.28395C8.36859 3.46399 7.61314 1.62972 6.20341 0.675202V0.673003ZM5.2747 5.23887C5.34788 5.37083 5.30376 5.53908 5.17462 5.61386C5.13265 5.63805 5.08638 5.65015 5.04118 5.65015C4.94755 5.65015 4.85716 5.60066 4.80766 5.51159L4.41056 4.79899C4.28143 4.84188 4.14368 4.86498 4.00055 4.86498C3.26017 4.86498 2.65969 4.25136 2.65969 3.49478C2.65969 2.7382 3.26017 2.12458 4.00055 2.12458C4.74094 2.12458 5.34142 2.7382 5.34142 3.49478C5.34142 3.90716 5.16171 4.27665 4.87868 4.52847L5.2747 5.23887Z" fill="#142864"/>
</g>
<defs>
<clipPath id="clip0_22_1953">
<rect width="8" height="14" fill="white"/>
</clipPath>
</defs>
</svg>
