<svg width="13" height="28" viewBox="0 0 13 28" fill="none" xmlns="http://www.w3.org/2000/svg">
<g id="Layer_1" clip-path="url(#clip0_22_2311)">
<path id="Vector" d="M4.68967 16.6327C4.21925 16.6327 3.8369 16.2512 3.8369 15.7793C3.8369 15.3074 4.21813 14.9259 4.68967 14.9259C8.33149 14.9259 11.2944 11.9608 11.2944 8.31633C11.2944 4.67187 8.33261 1.70566 4.68967 1.70566C3.58943 1.70566 2.50145 1.9812 1.54166 2.50327C1.1281 2.72861 0.610863 2.57466 0.385687 2.1608C0.160511 1.74693 0.314344 1.22932 0.72791 1.00398C1.93628 0.346932 3.30628 0 4.68967 0C9.27233 0 13 3.73036 13 8.31633C13 12.9023 9.27233 16.6327 4.68967 16.6327Z" fill="#FEFDF7"/>
<path id="Vector_2" d="M12.1483 28C11.8719 28 11.601 27.8661 11.4371 27.6185L3.90712 16.2511C3.64739 15.8585 3.7544 15.3286 4.14679 15.0687C4.53918 14.8087 5.06867 14.9158 5.32841 15.3085L12.8584 26.6758C13.1181 27.0685 13.0111 27.5984 12.6187 27.8583C12.4738 27.9542 12.31 28 12.1483 28Z" fill="#FEFDF7"/>
<path id="Vector_3" d="M4.61722 12.9369C7.16724 12.9369 9.23444 10.8682 9.23444 8.31636C9.23444 5.76449 7.16724 3.6958 4.61722 3.6958C2.0672 3.6958 0 5.76449 0 8.31636C0 10.8682 2.0672 12.9369 4.61722 12.9369Z" fill="#55DF63"/>
</g>
<defs>
<clipPath id="clip0_22_2311">
<rect width="13" height="28" fill="white"/>
</clipPath>
</defs>
</svg>
