<svg width="44" height="17" viewBox="0 0 44 17" fill="none" xmlns="http://www.w3.org/2000/svg">
<g clip-path="url(#clip0_2014_318)">
<path d="M41.7605 12.4738L35.1439 16.3862C34.4628 16.7884 33.69 17 32.9018 17H4.48162C2.00742 17 0 14.9445 0 12.4111V4.58888C0 2.05546 2.00742 0 4.48162 0H32.9018C33.6874 0 34.4603 0.211553 35.1413 0.613766L41.7579 4.52358C44.7448 6.28914 44.7448 10.7056 41.7579 12.4712L41.7605 12.4738Z" fill="#55DF63"/>
</g>
<path d="M11.7152 4.72727V12H10.3871L7.22301 7.42259H7.16974V12H5.6321V4.72727H6.98153L10.1207 9.30114H10.1847V4.72727H11.7152ZM12.9856 12V4.72727H17.8862V5.99503H14.5233V7.72798H17.6341V8.99574H14.5233V10.7322H17.9004V12H12.9856ZM20.5504 4.72727L22.017 7.20597H22.0739L23.5476 4.72727H25.2841L23.0646 8.36364L25.3338 12H23.5653L22.0739 9.51776H22.017L20.5256 12H18.7642L21.0405 8.36364L18.8068 4.72727H20.5504ZM25.9801 5.99503V4.72727H31.9531V5.99503H29.7266V12H28.2067V5.99503H25.9801Z" fill="#FEFDF7"/>
<defs>
<clipPath id="clip0_2014_318">
<rect width="44" height="17" fill="white"/>
</clipPath>
</defs>
</svg>
