<svg width="13" height="15" viewBox="0 0 13 15" fill="none" xmlns="http://www.w3.org/2000/svg">
<g clip-path="url(#clip0_21_470)">
<path d="M1.54797 9.05451V5.04951C1.54797 2.26036 3.74023 0 6.44533 0C9.14885 0 11.3411 2.26036 11.3411 5.04787V9.05288" fill="#55DF63"/>
<path d="M11.4187 9.44781H1.58127C0.70796 9.44781 0 10.1778 0 11.0782V11.8012C0 12.7016 0.70796 13.4316 1.58127 13.4316H11.4187C12.292 13.4316 13 12.7016 13 11.8012V11.0782C13 10.1778 12.292 9.44781 11.4187 9.44781Z" fill="#55DF63"/>
<path d="M7.64198 13.825C7.64198 14.4745 7.13071 15.0016 6.50074 15.0016C5.87076 15.0016 5.3595 14.4745 5.3595 13.825" fill="#55DF63"/>
</g>
<defs>
<clipPath id="clip0_21_470">
<rect width="13" height="15" fill="white"/>
</clipPath>
</defs>
</svg>
