<svg width="22" height="19" viewBox="0 0 22 19" fill="none" xmlns="http://www.w3.org/2000/svg">
<g id="Layer_1" clip-path="url(#clip0_2002_43)">
<path id="Vector" d="M7.93221 16.0248C7.11838 16.0248 6.30201 15.899 5.51362 15.6434C1.34658 14.2952 -0.956296 9.77406 0.378887 5.56753C1.71534 1.35972 6.19266 -0.965683 10.3584 0.383847C14.5255 1.73209 16.8283 6.25321 15.4919 10.4597C15.3736 10.8308 14.9794 11.0363 14.6119 10.9169C14.2444 10.7974 14.041 10.4007 14.1592 10.0283C15.2592 6.56267 13.362 2.83894 9.9299 1.72824C6.49911 0.617543 2.81146 2.53334 1.71153 5.99897C0.61159 9.46461 2.50882 13.1883 5.94088 14.299C7.70205 14.8691 9.62853 14.6573 11.2282 13.7161C11.5614 13.5196 11.9899 13.6339 12.1844 13.9703C12.379 14.3067 12.2658 14.7395 11.9327 14.9359C10.7081 15.6563 9.32461 16.0248 7.93221 16.0248Z" fill="#142864"/>
<path id="Vector_2" d="M21.2993 19.0001C21.1531 19.0001 21.0056 18.9538 20.8797 18.8588L12.5316 12.5323C12.2226 12.2986 12.1603 11.8556 12.3918 11.5436C12.6232 11.2316 13.0619 11.1687 13.3709 11.4024L21.719 17.7289C22.028 17.9626 22.0903 18.4056 21.8588 18.7176C21.7215 18.9025 21.5117 19.0001 21.2993 19.0001Z" fill="#142864"/>
</g>
<defs>
<clipPath id="clip0_2002_43">
<rect width="22" height="19" fill="white"/>
</clipPath>
</defs>
</svg>
