<svg width="15" height="14" viewBox="0 0 15 14" fill="none" xmlns="http://www.w3.org/2000/svg">
<path d="M11.0233 14C10.7538 14 10.4824 13.9348 10.2322 13.8045L7.55284 12.3989C7.4643 12.3524 7.35651 12.3505 7.26604 12.3952L4.54822 13.7338C3.98233 14.013 3.31635 13.9572 2.80627 13.5904C2.29813 13.2237 2.05368 12.6205 2.16916 12.0173L2.72351 9.11676C2.74276 9.01995 2.71003 8.92128 2.63882 8.85239L0.483035 6.76729C0.0364802 6.33165 -0.115579 5.70053 0.0884499 5.11968C0.292479 4.53883 0.810252 4.12739 1.43966 4.04734L4.46161 3.66197C4.5617 3.64894 4.65024 3.58936 4.69451 3.50186L6.07844 0.875C6.36909 0.32766 6.94268 0 7.57786 0C8.21305 0.00744681 8.77702 0.357447 9.05034 0.910372L10.3631 3.57074C10.4073 3.65824 10.492 3.72154 10.5921 3.73644L13.6025 4.19814C14.23 4.29495 14.7362 4.71755 14.9229 5.30399C15.1115 5.89043 14.9422 6.51782 14.4821 6.94043L12.2705 8.97154C12.1974 9.03856 12.1627 9.13723 12.1781 9.23404L12.6536 12.1457C12.7537 12.7527 12.4919 13.3484 11.9741 13.704C11.6873 13.8995 11.3543 14 11.0194 14H11.0233ZM7.40656 11.0585C7.67795 11.0585 7.94935 11.1237 8.19573 11.2521L10.8751 12.6577C11.0213 12.734 11.1407 12.6782 11.2003 12.6391C11.2581 12.6 11.3524 12.5088 11.3274 12.3487L10.852 9.43697C10.7673 8.91569 10.952 8.38883 11.3466 8.0258L13.5582 5.99468C13.6795 5.88298 13.6622 5.75638 13.641 5.69122C13.6198 5.62606 13.5602 5.51064 13.3946 5.48644L10.3842 5.02473C9.84528 4.94282 9.38525 4.60957 9.15043 4.13298L7.83771 1.47261C7.76649 1.32739 7.63561 1.30505 7.56439 1.30319C7.49125 1.30319 7.36228 1.32181 7.28529 1.46516L5.90136 4.09202C5.65306 4.56117 5.18341 4.88324 4.64446 4.95213L1.62252 5.3375C1.45699 5.35798 1.39347 5.47154 1.37037 5.5367C1.34727 5.60186 1.3261 5.72846 1.44351 5.84202L3.59929 7.92713C3.98425 8.29947 4.15556 8.83192 4.05547 9.34947L3.50113 12.25C3.47033 12.4082 3.56272 12.5013 3.62047 12.5423C3.67821 12.5832 3.79562 12.6428 3.94383 12.5684L6.66166 11.2298C6.89841 11.1144 7.15441 11.0548 7.41233 11.0548L7.40656 11.0585Z" fill="#55DF63"/>
</svg>
