<svg width="14" height="13" viewBox="0 0 14 13" fill="none" xmlns="http://www.w3.org/2000/svg">
<path d="M10.0621 3.8193L13.1492 4.293C13.9724 4.41887 14.2897 5.40269 13.6843 5.95754L11.417 8.03615C11.1769 8.25643 11.0637 8.57609 11.1151 8.89243L11.6039 11.8737C11.7343 12.6687 10.863 13.2633 10.1307 12.8791L7.38316 11.4398C7.0916 11.2874 6.74173 11.2824 6.44674 11.4282L3.66149 12.7979C2.91887 13.1639 2.06306 12.5478 2.2157 11.7545L2.7851 8.78643C2.84512 8.47174 2.74222 8.14877 2.50726 7.92186L0.294834 5.7886C-0.295145 5.21885 0.0478661 4.24331 0.874523 4.13731L3.97363 3.74146C4.3012 3.70005 4.58762 3.50461 4.73854 3.21974L6.16033 0.529968C6.53935 -0.187193 7.60612 -0.173943 7.96456 0.553156L9.31088 3.27771C9.45323 3.5659 9.7345 3.76796 10.0621 3.8193Z" fill="#55DF63"/>
</svg>
