<svg width="26" height="45" viewBox="0 0 26 45" fill="none" xmlns="http://www.w3.org/2000/svg">
<g clip-path="url(#clip0_204_271)">
<path d="M20.1593 2.16322C18.1308 0.802372 15.6826 0 13 0C11.2723 0 9.64597 0.33226 8.16306 0.933155C2.14046 3.37208 -1.4759 10.2082 0.580596 16.9806L7.47756 39.6945L7.93922 41.2214C9.4711 46.2619 16.5289 46.2619 18.0608 41.2214L25.4194 16.9841C27.1961 11.1342 24.7409 5.23839 20.1593 2.17029V2.16322ZM17.141 16.8392C17.3788 17.2634 17.2354 17.8042 16.8157 18.0445C16.6793 18.1223 16.5289 18.1612 16.3821 18.1612C16.0778 18.1612 15.784 18.0021 15.6231 17.7158L14.3325 15.4253C13.9129 15.5632 13.4652 15.6374 13 15.6374C10.5938 15.6374 8.64221 13.6651 8.64221 11.2332C8.64221 8.80135 10.5938 6.829 13 6.829C15.4063 6.829 17.3578 8.80135 17.3578 11.2332C17.3578 12.5587 16.7738 13.7464 15.8539 14.5558L17.141 16.8392Z" fill="#55DF63"/>
</g>
<defs>
<clipPath id="clip0_204_271">
<rect width="26" height="45" fill="white"/>
</clipPath>
</defs>
</svg>
